<mxfile host="app.diagrams.net" modified="2023-06-29T11:55:27.367Z" agent="Mozilla/5.0 (Windows NT 10.0; Win64; x64) AppleWebKit/537.36 (KHTML, like Gecko) Chrome/114.0.0.0 Safari/537.36" etag="KdFabUzfdmqAlUz6yzvz" version="21.5.2" type="google">
  <diagram name="Page-1" id="XPu69D7pFfid8kS-kR1I">
    <mxGraphModel grid="1" page="1" gridSize="10" guides="1" tooltips="1" connect="1" arrows="1" fold="1" pageScale="1" pageWidth="3300" pageHeight="4681" math="0" shadow="0">
      <root>
        <mxCell id="0" />
        <mxCell id="1" parent="0" />
        <mxCell id="e4aOgMLsEX9wfIiJwYjr-1" value="" style="rounded=0;whiteSpace=wrap;html=1;" vertex="1" parent="1">
          <mxGeometry x="460" y="160" width="330" height="230" as="geometry" />
        </mxCell>
        <mxCell id="e4aOgMLsEX9wfIiJwYjr-11" style="edgeStyle=orthogonalEdgeStyle;rounded=0;orthogonalLoop=1;jettySize=auto;html=1;exitX=0;exitY=0.5;exitDx=0;exitDy=0;entryX=0.5;entryY=0;entryDx=0;entryDy=0;exitPerimeter=0;" edge="1" parent="1" source="e4aOgMLsEX9wfIiJwYjr-9" target="e4aOgMLsEX9wfIiJwYjr-2">
          <mxGeometry relative="1" as="geometry">
            <mxPoint x="910" y="120" as="sourcePoint" />
            <Array as="points">
              <mxPoint x="730" y="115" />
            </Array>
          </mxGeometry>
        </mxCell>
        <mxCell id="e4aOgMLsEX9wfIiJwYjr-15" style="edgeStyle=orthogonalEdgeStyle;rounded=0;orthogonalLoop=1;jettySize=auto;html=1;entryX=0;entryY=0.5;entryDx=0;entryDy=0;" edge="1" parent="1" source="e4aOgMLsEX9wfIiJwYjr-2" target="e4aOgMLsEX9wfIiJwYjr-5">
          <mxGeometry relative="1" as="geometry" />
        </mxCell>
        <mxCell id="e4aOgMLsEX9wfIiJwYjr-2" value="GuiShard" style="rounded=0;whiteSpace=wrap;html=1;" vertex="1" parent="1">
          <mxGeometry x="700" y="190" width="60" height="50" as="geometry" />
        </mxCell>
        <mxCell id="e4aOgMLsEX9wfIiJwYjr-18" style="edgeStyle=orthogonalEdgeStyle;rounded=0;orthogonalLoop=1;jettySize=auto;html=1;" edge="1" parent="1" source="e4aOgMLsEX9wfIiJwYjr-2" target="e4aOgMLsEX9wfIiJwYjr-3">
          <mxGeometry relative="1" as="geometry">
            <Array as="points">
              <mxPoint x="730" y="260" />
            </Array>
          </mxGeometry>
        </mxCell>
        <mxCell id="e4aOgMLsEX9wfIiJwYjr-20" style="edgeStyle=orthogonalEdgeStyle;rounded=0;orthogonalLoop=1;jettySize=auto;html=1;exitX=0;exitY=0.5;exitDx=0;exitDy=0;" edge="1" parent="1" source="e4aOgMLsEX9wfIiJwYjr-6">
          <mxGeometry relative="1" as="geometry">
            <mxPoint x="370" y="470" as="sourcePoint" />
            <mxPoint x="630" y="290" as="targetPoint" />
            <Array as="points">
              <mxPoint x="570" y="335" />
              <mxPoint x="570" y="290" />
              <mxPoint x="630" y="290" />
            </Array>
          </mxGeometry>
        </mxCell>
        <mxCell id="e4aOgMLsEX9wfIiJwYjr-26" style="edgeStyle=orthogonalEdgeStyle;rounded=0;orthogonalLoop=1;jettySize=auto;html=1;entryX=0.004;entryY=0.676;entryDx=0;entryDy=0;entryPerimeter=0;" edge="1" parent="1" source="e4aOgMLsEX9wfIiJwYjr-3" target="e4aOgMLsEX9wfIiJwYjr-23">
          <mxGeometry relative="1" as="geometry">
            <Array as="points">
              <mxPoint x="410" y="270" />
              <mxPoint x="410" y="490" />
              <mxPoint x="460" y="490" />
            </Array>
          </mxGeometry>
        </mxCell>
        <mxCell id="e4aOgMLsEX9wfIiJwYjr-3" value="&lt;div&gt;Monitoring&lt;/div&gt;&lt;div&gt;Shard&lt;br&gt;&lt;/div&gt;" style="rounded=0;whiteSpace=wrap;html=1;" vertex="1" parent="1">
          <mxGeometry x="630" y="250" width="60" height="50" as="geometry" />
        </mxCell>
        <mxCell id="e4aOgMLsEX9wfIiJwYjr-4" value="&lt;div&gt;Messaging&lt;/div&gt;&lt;div&gt;Shard&lt;br&gt;&lt;/div&gt;" style="rounded=0;whiteSpace=wrap;html=1;" vertex="1" parent="1">
          <mxGeometry x="630" y="190" width="60" height="50" as="geometry" />
        </mxCell>
        <mxCell id="e4aOgMLsEX9wfIiJwYjr-5" value="SwingGui" style="rounded=0;whiteSpace=wrap;html=1;" vertex="1" parent="1">
          <mxGeometry x="940" y="190" width="60" height="50" as="geometry" />
        </mxCell>
        <mxCell id="e4aOgMLsEX9wfIiJwYjr-46" style="edgeStyle=orthogonalEdgeStyle;rounded=0;orthogonalLoop=1;jettySize=auto;html=1;exitX=0.04;exitY=0.875;exitDx=0;exitDy=0;exitPerimeter=0;dashed=1;dashPattern=1 1;" edge="1" parent="1" source="e4aOgMLsEX9wfIiJwYjr-6" target="e4aOgMLsEX9wfIiJwYjr-8">
          <mxGeometry relative="1" as="geometry">
            <Array as="points">
              <mxPoint x="630" y="354" />
              <mxPoint x="630" y="360" />
              <mxPoint x="470" y="360" />
            </Array>
          </mxGeometry>
        </mxCell>
        <mxCell id="e4aOgMLsEX9wfIiJwYjr-6" value="&lt;div&gt;Control&lt;/div&gt;&lt;div&gt;Shard&lt;br&gt;&lt;/div&gt;" style="rounded=0;whiteSpace=wrap;html=1;" vertex="1" parent="1">
          <mxGeometry x="630" y="310" width="60" height="50" as="geometry" />
        </mxCell>
        <mxCell id="e4aOgMLsEX9wfIiJwYjr-7" value="&lt;div&gt;Other&lt;/div&gt;&lt;div&gt;Shards&lt;br&gt;&lt;/div&gt;" style="rounded=0;whiteSpace=wrap;html=1;" vertex="1" parent="1">
          <mxGeometry x="700" y="310" width="60" height="50" as="geometry" />
        </mxCell>
        <mxCell id="e4aOgMLsEX9wfIiJwYjr-8" value="Agent" style="text;html=1;strokeColor=none;fillColor=none;align=center;verticalAlign=middle;whiteSpace=wrap;rounded=0;fontSize=16;" vertex="1" parent="1">
          <mxGeometry x="460" y="160" width="110" height="60" as="geometry" />
        </mxCell>
        <mxCell id="e4aOgMLsEX9wfIiJwYjr-9" value="" style="shape=note;whiteSpace=wrap;html=1;backgroundOutline=1;darkOpacity=0.05;size=16;" vertex="1" parent="1">
          <mxGeometry x="940" y="90" width="40" height="50" as="geometry" />
        </mxCell>
        <mxCell id="e4aOgMLsEX9wfIiJwYjr-10" value=".yaml" style="text;html=1;strokeColor=none;fillColor=none;align=center;verticalAlign=middle;whiteSpace=wrap;rounded=0;" vertex="1" parent="1">
          <mxGeometry x="930" y="110" width="60" height="30" as="geometry" />
        </mxCell>
        <mxCell id="e4aOgMLsEX9wfIiJwYjr-24" style="edgeStyle=orthogonalEdgeStyle;rounded=0;orthogonalLoop=1;jettySize=auto;html=1;" edge="1" parent="1" source="e4aOgMLsEX9wfIiJwYjr-12" target="e4aOgMLsEX9wfIiJwYjr-6">
          <mxGeometry relative="1" as="geometry">
            <Array as="points">
              <mxPoint x="660" y="430" />
              <mxPoint x="660" y="430" />
            </Array>
          </mxGeometry>
        </mxCell>
        <mxCell id="e4aOgMLsEX9wfIiJwYjr-41" style="edgeStyle=orthogonalEdgeStyle;rounded=0;orthogonalLoop=1;jettySize=auto;html=1;entryX=0;entryY=0.953;entryDx=0;entryDy=0;entryPerimeter=0;" edge="1" parent="1" source="e4aOgMLsEX9wfIiJwYjr-12" target="e4aOgMLsEX9wfIiJwYjr-33">
          <mxGeometry relative="1" as="geometry">
            <Array as="points">
              <mxPoint x="780" y="611" />
            </Array>
          </mxGeometry>
        </mxCell>
        <mxCell id="e4aOgMLsEX9wfIiJwYjr-44" style="edgeStyle=orthogonalEdgeStyle;rounded=0;orthogonalLoop=1;jettySize=auto;html=1;entryX=0.25;entryY=1;entryDx=0;entryDy=0;" edge="1" parent="1" source="e4aOgMLsEX9wfIiJwYjr-12" target="e4aOgMLsEX9wfIiJwYjr-28">
          <mxGeometry relative="1" as="geometry">
            <Array as="points">
              <mxPoint x="168" y="590" />
            </Array>
          </mxGeometry>
        </mxCell>
        <mxCell id="e4aOgMLsEX9wfIiJwYjr-62" style="edgeStyle=orthogonalEdgeStyle;rounded=0;orthogonalLoop=1;jettySize=auto;html=1;" edge="1" parent="1" source="e4aOgMLsEX9wfIiJwYjr-12" target="GOfTw_mxdVKCr9XZnJSm-1">
          <mxGeometry relative="1" as="geometry">
            <Array as="points">
              <mxPoint x="570" y="820" />
            </Array>
            <mxPoint x="870" y="810.0000000000002" as="targetPoint" />
          </mxGeometry>
        </mxCell>
        <mxCell id="e4aOgMLsEX9wfIiJwYjr-12" value="" style="whiteSpace=wrap;html=1;aspect=fixed;" vertex="1" parent="1">
          <mxGeometry x="460" y="450" width="220" height="220" as="geometry" />
        </mxCell>
        <mxCell id="e4aOgMLsEX9wfIiJwYjr-13" value="GuiLoad" style="text;html=1;strokeColor=none;fillColor=none;align=center;verticalAlign=middle;whiteSpace=wrap;rounded=0;" vertex="1" parent="1">
          <mxGeometry x="800" y="90" width="60" height="30" as="geometry" />
        </mxCell>
        <mxCell id="e4aOgMLsEX9wfIiJwYjr-17" value="creates" style="text;html=1;strokeColor=none;fillColor=none;align=center;verticalAlign=middle;whiteSpace=wrap;rounded=0;" vertex="1" parent="1">
          <mxGeometry x="820" y="190" width="60" height="30" as="geometry" />
        </mxCell>
        <mxCell id="e4aOgMLsEX9wfIiJwYjr-19" value="sendGuiUpdate" style="text;html=1;strokeColor=none;fillColor=none;align=center;verticalAlign=middle;whiteSpace=wrap;rounded=0;" vertex="1" parent="1">
          <mxGeometry x="710" y="260" width="60" height="30" as="geometry" />
        </mxCell>
        <mxCell id="e4aOgMLsEX9wfIiJwYjr-21" value="sendGuiUpdate" style="text;html=1;strokeColor=none;fillColor=none;align=center;verticalAlign=middle;whiteSpace=wrap;rounded=0;" vertex="1" parent="1">
          <mxGeometry x="500" y="300" width="60" height="30" as="geometry" />
        </mxCell>
        <mxCell id="e4aOgMLsEX9wfIiJwYjr-54" style="edgeStyle=orthogonalEdgeStyle;rounded=0;orthogonalLoop=1;jettySize=auto;html=1;exitX=0.002;exitY=0.678;exitDx=0;exitDy=0;entryX=0.318;entryY=0.545;entryDx=0;entryDy=0;entryPerimeter=0;exitPerimeter=0;" edge="1" parent="1" source="e4aOgMLsEX9wfIiJwYjr-23" target="e4aOgMLsEX9wfIiJwYjr-12">
          <mxGeometry relative="1" as="geometry">
            <Array as="points">
              <mxPoint x="470" y="491" />
              <mxPoint x="470" y="510" />
              <mxPoint x="530" y="510" />
            </Array>
          </mxGeometry>
        </mxCell>
        <mxCell id="e4aOgMLsEX9wfIiJwYjr-23" value="Central Monitoring" style="text;html=1;strokeColor=none;fillColor=none;align=center;verticalAlign=middle;whiteSpace=wrap;rounded=0;fontSize=16;" vertex="1" parent="1">
          <mxGeometry x="460" y="450" width="110" height="60" as="geometry" />
        </mxCell>
        <mxCell id="e4aOgMLsEX9wfIiJwYjr-25" value="Control Message" style="text;html=1;strokeColor=none;fillColor=none;align=center;verticalAlign=middle;whiteSpace=wrap;rounded=0;" vertex="1" parent="1">
          <mxGeometry x="659" y="402" width="60" height="30" as="geometry" />
        </mxCell>
        <mxCell id="e4aOgMLsEX9wfIiJwYjr-27" value="report Gui update" style="text;html=1;strokeColor=none;fillColor=none;align=center;verticalAlign=middle;whiteSpace=wrap;rounded=0;" vertex="1" parent="1">
          <mxGeometry x="337" y="400" width="60" height="30" as="geometry" />
        </mxCell>
        <mxCell id="e4aOgMLsEX9wfIiJwYjr-49" style="edgeStyle=orthogonalEdgeStyle;rounded=0;orthogonalLoop=1;jettySize=auto;html=1;exitX=0.75;exitY=1;exitDx=0;exitDy=0;" edge="1" parent="1" source="e4aOgMLsEX9wfIiJwYjr-28">
          <mxGeometry relative="1" as="geometry">
            <mxPoint x="460" y="530" as="targetPoint" />
            <Array as="points">
              <mxPoint x="242" y="530" />
              <mxPoint x="460" y="530" />
            </Array>
          </mxGeometry>
        </mxCell>
        <mxCell id="e4aOgMLsEX9wfIiJwYjr-28" value="" style="whiteSpace=wrap;html=1;aspect=fixed;" vertex="1" parent="1">
          <mxGeometry x="130" y="270" width="150" height="150" as="geometry" />
        </mxCell>
        <mxCell id="e4aOgMLsEX9wfIiJwYjr-31" style="edgeStyle=orthogonalEdgeStyle;rounded=0;orthogonalLoop=1;jettySize=auto;html=1;entryX=0;entryY=0.5;entryDx=0;entryDy=0;" edge="1" parent="1" source="e4aOgMLsEX9wfIiJwYjr-28" target="e4aOgMLsEX9wfIiJwYjr-8">
          <mxGeometry relative="1" as="geometry">
            <Array as="points">
              <mxPoint x="180" y="190" />
            </Array>
          </mxGeometry>
        </mxCell>
        <mxCell id="e4aOgMLsEX9wfIiJwYjr-30" value="Node" style="text;html=1;strokeColor=none;fillColor=none;align=center;verticalAlign=middle;whiteSpace=wrap;rounded=0;fontSize=16;" vertex="1" parent="1">
          <mxGeometry x="110" y="270" width="110" height="60" as="geometry" />
        </mxCell>
        <mxCell id="e4aOgMLsEX9wfIiJwYjr-32" value="Kill / Start" style="text;html=1;strokeColor=none;fillColor=none;align=center;verticalAlign=middle;whiteSpace=wrap;rounded=0;" vertex="1" parent="1">
          <mxGeometry x="260" y="190" width="60" height="30" as="geometry" />
        </mxCell>
        <mxCell id="e4aOgMLsEX9wfIiJwYjr-38" style="edgeStyle=orthogonalEdgeStyle;rounded=0;orthogonalLoop=1;jettySize=auto;html=1;entryX=0;entryY=0.25;entryDx=0;entryDy=0;" edge="1" parent="1" source="e4aOgMLsEX9wfIiJwYjr-33" target="e4aOgMLsEX9wfIiJwYjr-36">
          <mxGeometry relative="1" as="geometry">
            <Array as="points">
              <mxPoint x="1110" y="470" />
              <mxPoint x="1110" y="470" />
            </Array>
          </mxGeometry>
        </mxCell>
        <mxCell id="e4aOgMLsEX9wfIiJwYjr-42" style="edgeStyle=orthogonalEdgeStyle;rounded=0;orthogonalLoop=1;jettySize=auto;html=1;" edge="1" parent="1" source="e4aOgMLsEX9wfIiJwYjr-33">
          <mxGeometry relative="1" as="geometry">
            <mxPoint x="680" y="480" as="targetPoint" />
            <Array as="points">
              <mxPoint x="680" y="480" />
            </Array>
          </mxGeometry>
        </mxCell>
        <mxCell id="e4aOgMLsEX9wfIiJwYjr-33" value="" style="whiteSpace=wrap;html=1;aspect=fixed;" vertex="1" parent="1">
          <mxGeometry x="880" y="420" width="200" height="200" as="geometry" />
        </mxCell>
        <mxCell id="e4aOgMLsEX9wfIiJwYjr-35" value="Web Entity" style="text;html=1;strokeColor=none;fillColor=none;align=center;verticalAlign=middle;whiteSpace=wrap;rounded=0;fontSize=16;" vertex="1" parent="1">
          <mxGeometry x="880" y="420" width="110" height="60" as="geometry" />
        </mxCell>
        <mxCell id="e4aOgMLsEX9wfIiJwYjr-40" style="edgeStyle=orthogonalEdgeStyle;rounded=0;orthogonalLoop=1;jettySize=auto;html=1;" edge="1" parent="1" source="e4aOgMLsEX9wfIiJwYjr-36">
          <mxGeometry relative="1" as="geometry">
            <mxPoint x="1080" y="550" as="targetPoint" />
            <Array as="points">
              <mxPoint x="1080" y="550" />
            </Array>
          </mxGeometry>
        </mxCell>
        <mxCell id="e4aOgMLsEX9wfIiJwYjr-36" value="" style="whiteSpace=wrap;html=1;aspect=fixed;" vertex="1" parent="1">
          <mxGeometry x="1190" y="420" width="200" height="200" as="geometry" />
        </mxCell>
        <mxCell id="e4aOgMLsEX9wfIiJwYjr-37" value="Web Page" style="text;html=1;strokeColor=none;fillColor=none;align=center;verticalAlign=middle;whiteSpace=wrap;rounded=0;fontSize=16;" vertex="1" parent="1">
          <mxGeometry x="1190" y="420" width="110" height="60" as="geometry" />
        </mxCell>
        <mxCell id="e4aOgMLsEX9wfIiJwYjr-43" value="PostAgentEvent" style="text;html=1;strokeColor=none;fillColor=none;align=center;verticalAlign=middle;whiteSpace=wrap;rounded=0;" vertex="1" parent="1">
          <mxGeometry x="750" y="450" width="60" height="30" as="geometry" />
        </mxCell>
        <mxCell id="e4aOgMLsEX9wfIiJwYjr-45" value="Control Message" style="text;html=1;strokeColor=none;fillColor=none;align=center;verticalAlign=middle;whiteSpace=wrap;rounded=0;" vertex="1" parent="1">
          <mxGeometry x="210" y="560" width="60" height="30" as="geometry" />
        </mxCell>
        <mxCell id="e4aOgMLsEX9wfIiJwYjr-48" value="Stop" style="text;html=1;strokeColor=none;fillColor=none;align=center;verticalAlign=middle;whiteSpace=wrap;rounded=0;" vertex="1" parent="1">
          <mxGeometry x="459" y="229" width="60" height="30" as="geometry" />
        </mxCell>
        <mxCell id="e4aOgMLsEX9wfIiJwYjr-50" value="register Entities Message" style="text;html=1;strokeColor=none;fillColor=none;align=center;verticalAlign=middle;whiteSpace=wrap;rounded=0;" vertex="1" parent="1">
          <mxGeometry x="247" y="500" width="90" height="30" as="geometry" />
        </mxCell>
        <mxCell id="e4aOgMLsEX9wfIiJwYjr-51" value="update" style="text;html=1;strokeColor=none;fillColor=none;align=center;verticalAlign=middle;whiteSpace=wrap;rounded=0;" vertex="1" parent="1">
          <mxGeometry x="1110" y="440" width="60" height="30" as="geometry" />
        </mxCell>
        <mxCell id="e4aOgMLsEX9wfIiJwYjr-52" value="activate" style="text;html=1;strokeColor=none;fillColor=none;align=center;verticalAlign=middle;whiteSpace=wrap;rounded=0;" vertex="1" parent="1">
          <mxGeometry x="1110" y="520" width="60" height="30" as="geometry" />
        </mxCell>
        <mxCell id="e4aOgMLsEX9wfIiJwYjr-53" style="edgeStyle=orthogonalEdgeStyle;rounded=0;orthogonalLoop=1;jettySize=auto;html=1;entryX=-0.004;entryY=0.501;entryDx=0;entryDy=0;entryPerimeter=0;" edge="1" parent="1" target="e4aOgMLsEX9wfIiJwYjr-33">
          <mxGeometry relative="1" as="geometry">
            <mxPoint x="680" y="520" as="sourcePoint" />
            <mxPoint x="879" y="517" as="targetPoint" />
            <Array as="points">
              <mxPoint x="879" y="520" />
            </Array>
          </mxGeometry>
        </mxCell>
        <mxCell id="e4aOgMLsEX9wfIiJwYjr-55" value="manageOperation" style="text;html=1;strokeColor=none;fillColor=none;align=center;verticalAlign=middle;whiteSpace=wrap;rounded=0;" vertex="1" parent="1">
          <mxGeometry x="501" y="561" width="60" height="30" as="geometry" />
        </mxCell>
        <mxCell id="e4aOgMLsEX9wfIiJwYjr-56" value="UpdateGui" style="text;html=1;strokeColor=none;fillColor=none;align=center;verticalAlign=middle;whiteSpace=wrap;rounded=0;" vertex="1" parent="1">
          <mxGeometry x="750" y="520" width="60" height="30" as="geometry" />
        </mxCell>
        <mxCell id="e4aOgMLsEX9wfIiJwYjr-59" value="Creates" style="text;html=1;strokeColor=none;fillColor=none;align=center;verticalAlign=middle;whiteSpace=wrap;rounded=0;" vertex="1" parent="1">
          <mxGeometry x="750" y="610" width="60" height="30" as="geometry" />
        </mxCell>
        <mxCell id="e4aOgMLsEX9wfIiJwYjr-64" style="edgeStyle=orthogonalEdgeStyle;rounded=0;orthogonalLoop=1;jettySize=auto;html=1;" edge="1" parent="1" source="GOfTw_mxdVKCr9XZnJSm-1" target="e4aOgMLsEX9wfIiJwYjr-36">
          <mxGeometry relative="1" as="geometry">
            <mxPoint x="1030" y="830.0000000000002" as="sourcePoint" />
          </mxGeometry>
        </mxCell>
        <mxCell id="e4aOgMLsEX9wfIiJwYjr-63" value="Send Status and operation information" style="text;html=1;strokeColor=none;fillColor=none;align=center;verticalAlign=middle;whiteSpace=wrap;rounded=0;" vertex="1" parent="1">
          <mxGeometry x="589" y="750" width="130" height="50" as="geometry" />
        </mxCell>
        <mxCell id="e4aOgMLsEX9wfIiJwYjr-65" value="Interract" style="text;html=1;strokeColor=none;fillColor=none;align=center;verticalAlign=middle;whiteSpace=wrap;rounded=0;" vertex="1" parent="1">
          <mxGeometry x="1120" y="793" width="60" height="30" as="geometry" />
        </mxCell>
        <mxCell id="GOfTw_mxdVKCr9XZnJSm-1" value="User" style="shape=umlActor;verticalLabelPosition=bottom;verticalAlign=top;html=1;outlineConnect=0;" vertex="1" parent="1">
          <mxGeometry x="920" y="760" width="60" height="120" as="geometry" />
        </mxCell>
      </root>
    </mxGraphModel>
  </diagram>
</mxfile>
